<svg xmlns="http://www.w3.org/2000/svg" width="128" height="128" fill-rule="evenodd" clip-rule="evenodd" image-rendering="optimizeQuality" shape-rendering="geometricPrecision" text-rendering="geometricPrecision" viewBox="0 0 25441 25441"><circle cx="12721" cy="12721" r="12721" fill="#53b4ed"/><rect width="18254" height="11943" x="5739" y="3839" fill="#1c3b5c" rx="1362" ry="1362"/><rect width="14440" height="10853" x="7646" y="4384" fill="#fff"/><rect width="14440" height="1615" x="7646" y="13622" fill="#c5c7cb"/><circle cx="6694" cy="9810" r="483" fill="#afb0b5"/><path fill="#afb0b5" d="M22990 8101c98,0 177,80 177,178 0,98 -79,177 -177,177 -99,0 -178,-79 -178,-177 0,-98 79,-178 178,-178zm124 1052l0 1158c0,212 -248,212 -248,0l0 -1158c0,-212 248,-212 248,0z"/><path fill="#ffcb87" d="M5739 10900l3086 -636c1086,-209 1209,1161 489,1454l-2419 1202c0,0 353,1693 -1246,3168l491 7520c-1457,-882 -2721,-2048 -3719,-3422l206 -4587 98 -4905c7,-366 82,-670 265,-988l1214 -2098 1546 -1139 -11 1693 0 2738z"/><path fill="#244a72" d="M2101 16088l4100 0 0 7556c-1690,-1010 -3127,-2402 -4190,-4056l90 -3500z"/><polygon fill="#c5c7cb" points="14533 8015 16083 9206 14533 10397"/><path fill="#c5c7cb" fill-rule="nonzero" d="M15072 6509c745,0 1419,302 1907,790 488,488 790,1162 790,1907 0,744 -302,1419 -790,1906 -488,488 -1162,790 -1907,790 -744,0 -1418,-302 -1906,-790 -488,-487 -790,-1162 -790,-1906 0,-745 302,-1419 790,-1907 488,-488 1162,-790 1906,-790zm1593 1105c-408,-408 -971,-660 -1593,-660 -621,0 -1185,252 -1592,660 -407,407 -659,970 -659,1592 0,622 252,1185 659,1592 407,407 971,660 1592,660 622,0 1185,-253 1593,-660 407,-407 659,-970 659,-1592 0,-622 -252,-1185 -659,-1592z"/><rect width="10678" height="405" x="10021" y="14188" fill="#fff"/><rect width="8596" height="405" x="10021" y="14188" fill="#ff576b"/><polygon fill="#fff" points="8791 13933 9386 14390 8791 14847"/></svg>